<svg width="34" height="35" viewBox="0 0 34 35" fill="none" xmlns="http://www.w3.org/2000/svg">
<g clip-path="url(#clip0_8_306)">
<path d="M17 0.5C12.3866 0.5 11.8065 0.52125 9.99388 0.602C8.18125 0.687 6.94662 0.97175 5.865 1.3925C4.72992 1.81819 3.70205 2.48772 2.85388 3.35388C1.98772 4.20205 1.31819 5.22992 0.8925 6.365C0.47175 7.4445 0.184875 8.68125 0.102 10.4875C0.02125 12.3044 0 12.8824 0 17.5021C0 22.1176 0.02125 22.6956 0.102 24.5083C0.187 26.3188 0.47175 27.5534 0.8925 28.635C1.32812 29.7528 1.90825 30.7005 2.85388 31.6461C3.79738 32.5917 4.74513 33.174 5.86287 33.6075C6.94663 34.0283 8.17913 34.3151 9.98963 34.398C11.8044 34.4787 12.3824 34.5 17 34.5C21.6176 34.5 22.1935 34.4787 24.0083 34.398C25.8166 34.313 27.0555 34.0283 28.1371 33.6075C29.2714 33.1815 30.2986 32.512 31.1461 31.6461C32.0917 30.7005 32.6719 29.7528 33.1075 28.635C33.5261 27.5534 33.813 26.3188 33.898 24.5083C33.9787 22.6956 34 22.1176 34 17.5C34 12.8824 33.9787 12.3044 33.898 10.4896C33.813 8.68125 33.5261 7.4445 33.1075 6.365C32.6818 5.22992 32.0123 4.20205 31.1461 3.35388C30.2979 2.48772 29.2701 1.81819 28.135 1.3925C27.0513 0.97175 25.8145 0.684875 24.0061 0.602C22.1914 0.52125 21.6155 0.5 16.9958 0.5H17ZM15.4764 3.56425H17.0021C21.5411 3.56425 22.0787 3.57913 23.8701 3.662C25.5276 3.73638 26.4286 4.01475 27.0279 4.24638C27.8205 4.5545 28.3879 4.92425 28.9829 5.51925C29.5779 6.11425 29.9455 6.6795 30.2536 7.47425C30.4874 8.07137 30.7636 8.97238 30.838 10.6299C30.9209 12.4213 30.9379 12.9589 30.9379 17.4958C30.9379 22.0326 30.9209 22.5724 30.838 24.3637C30.7636 26.0212 30.4853 26.9201 30.2536 27.5194C29.9791 28.2565 29.5444 28.9236 28.9807 29.4722C28.3857 30.0672 27.8205 30.4349 27.0258 30.743C26.4308 30.9768 25.5297 31.253 23.8701 31.3295C22.0787 31.4103 21.5411 31.4294 17.0021 31.4294C12.4631 31.4294 11.9234 31.4103 10.132 31.3295C8.4745 31.253 7.57562 30.9768 6.97638 30.743C6.23865 30.4694 5.5709 30.0354 5.02137 29.4722C4.45671 28.9232 4.0212 28.2554 3.74638 27.5173C3.51475 26.9201 3.23638 26.0191 3.162 24.3616C3.08125 22.5702 3.06425 22.0326 3.06425 17.4915C3.06425 12.9504 3.08125 12.417 3.162 10.6256C3.2385 8.96812 3.51475 8.06713 3.7485 7.46788C4.05662 6.67525 4.42637 6.10787 5.02137 5.51288C5.61637 4.91787 6.18162 4.55025 6.97638 4.24213C7.57562 4.00838 8.4745 3.73213 10.132 3.65563C11.7003 3.58337 12.308 3.56213 15.4764 3.56V3.56425ZM26.0759 6.38625C25.808 6.38625 25.5427 6.43902 25.2952 6.54154C25.0477 6.64406 24.8228 6.79432 24.6334 6.98375C24.4439 7.17318 24.2937 7.39807 24.1912 7.64558C24.0886 7.89308 24.0359 8.15835 24.0359 8.42625C24.0359 8.69415 24.0886 8.95942 24.1912 9.20692C24.2937 9.45443 24.4439 9.67932 24.6334 9.86875C24.8228 10.0582 25.0477 10.2084 25.2952 10.311C25.5427 10.4135 25.808 10.4663 26.0759 10.4663C26.6169 10.4663 27.1358 10.2513 27.5184 9.86875C27.9009 9.48617 28.1159 8.96729 28.1159 8.42625C28.1159 7.88521 27.9009 7.36633 27.5184 6.98375C27.1358 6.60118 26.6169 6.38625 26.0759 6.38625ZM17.0021 8.7705C15.8442 8.75243 14.6941 8.96491 13.6191 9.39555C12.544 9.82619 11.5653 10.4664 10.7401 11.2789C9.9148 12.0914 9.2594 13.06 8.81204 14.1282C8.36468 15.1964 8.13429 16.3429 8.13429 17.5011C8.13429 18.6592 8.36468 19.8057 8.81204 20.8739C9.2594 21.9422 9.9148 22.9107 10.7401 23.7232C11.5653 24.5357 12.544 25.1759 13.6191 25.6066C14.6941 26.0372 15.8442 26.2497 17.0021 26.2316C19.294 26.1959 21.48 25.2603 23.0881 23.6269C24.6962 21.9935 25.5975 19.7932 25.5975 17.5011C25.5975 15.2089 24.6962 13.0086 23.0881 11.3752C21.48 9.74181 19.294 8.80626 17.0021 8.7705ZM17.0021 11.8326C17.7464 11.8326 18.4833 11.9792 19.1709 12.264C19.8585 12.5488 20.4833 12.9663 21.0096 13.4926C21.5358 14.0188 21.9533 14.6436 22.2381 15.3312C22.5229 16.0188 22.6695 16.7558 22.6695 17.5C22.6695 18.2442 22.5229 18.9812 22.2381 19.6688C21.9533 20.3564 21.5358 20.9812 21.0096 21.5074C20.4833 22.0337 19.8585 22.4512 19.1709 22.736C18.4833 23.0208 17.7464 23.1674 17.0021 23.1674C15.499 23.1674 14.0575 22.5703 12.9947 21.5074C11.9318 20.4446 11.3348 19.0031 11.3348 17.5C11.3348 15.9969 11.9318 14.5554 12.9947 13.4926C14.0575 12.4297 15.499 11.8326 17.0021 11.8326Z" fill="#853232"/>
</g>
<defs>
<clipPath id="clip0_8_306">
<rect width="34" height="34" fill="white" transform="translate(0 0.5)"/>
</clipPath>
</defs>
</svg>
