<svg width="35" height="35" viewBox="0 0 35 35" fill="none" xmlns="http://www.w3.org/2000/svg">
<path d="M29.5328 5.44285C27.9673 3.86928 26.1027 2.62181 24.0477 1.77319C21.9928 0.924567 19.7887 0.491796 17.564 0.500118C8.24221 0.500118 0.645153 8.06084 0.636615 17.3428C0.636615 20.3157 1.41788 23.2078 2.89289 25.7684L0.5 34.5L9.47388 32.1583C11.9553 33.506 14.7373 34.2111 17.564 34.2089H17.5726C26.8965 34.2089 34.4915 26.6482 34.5 17.3577C34.5019 15.1436 34.0638 12.951 33.2109 10.9061C32.3581 8.86122 31.1094 7.0045 29.5328 5.44285ZM17.564 31.3571C15.0434 31.3552 12.5695 30.68 10.4003 29.4021L9.88799 29.0961L4.56429 30.4859L5.98594 25.3158L5.65294 24.7824C4.24369 22.5519 3.49837 19.9694 3.50339 17.3343C3.50339 9.62909 9.81542 3.34336 17.5726 3.34336C19.4206 3.34006 21.251 3.70094 22.9582 4.4052C24.6655 5.10946 26.2158 6.14316 27.5198 7.44672C28.8281 8.7454 29.8653 10.289 30.5717 11.9885C31.278 13.6881 31.6395 15.5099 31.6354 17.3492C31.6268 25.082 25.3148 31.3571 17.564 31.3571ZM25.2806 20.8724C24.8601 20.662 22.7831 19.6442 22.3925 19.4997C22.004 19.3616 21.7201 19.2893 21.4426 19.7101C21.1587 20.1287 20.3476 21.0828 20.1042 21.3569C19.8609 21.6395 19.609 21.6714 19.1863 21.4632C18.7658 21.2507 17.4018 20.8087 15.788 19.3701C14.5286 18.2544 13.6855 16.8732 13.4336 16.4546C13.1902 16.0338 13.4101 15.8086 13.6214 15.5982C13.8071 15.4112 14.0419 15.1052 14.2533 14.8629C14.4667 14.6207 14.5372 14.4422 14.6759 14.1617C14.8147 13.8769 14.7485 13.6347 14.6439 13.4243C14.5372 13.2139 13.694 11.1378 13.3375 10.3006C12.996 9.47396 12.648 9.58871 12.3876 9.57809C12.1443 9.56321 11.8604 9.56321 11.5765 9.56321C11.3621 9.56864 11.1512 9.61806 10.9569 9.70838C10.7626 9.79869 10.5891 9.92796 10.4473 10.0881C10.0588 10.5088 8.97225 11.5267 8.97225 13.6028C8.97225 15.6789 10.4878 17.6743 10.7013 17.9569C10.9105 18.2396 13.6769 22.4874 17.9226 24.3149C18.9259 24.7505 19.7157 25.0077 20.3326 25.2032C21.3466 25.5262 22.2623 25.4773 22.9923 25.3732C23.8035 25.2499 25.492 24.3532 25.8484 23.3693C26.1985 22.3833 26.1985 21.5418 26.0918 21.3654C25.9872 21.1869 25.7033 21.0828 25.2806 20.8724Z" fill="#4B0B0B"/>
</svg>
